# xmcd
#
# Track frame offsets: 
#        150
#        15920
#        27003
#        39916
#        56299
#        61479
#        81808
#        122142
#        158830
#        176831
#        221148
#        257305
#        281323
#        294199
#        304352
#        328448
#        333836
#
# Disc length: 4680 seconds
#
# Revision: 0
# Processed by: cddbd v1.5.2PL0 Copyright (c) Steve Scherf et al.
# Submitted via: ExactAudioCopy v1.0b3
#
DISCID=e5124611
DTITLE=Marvin Gaye - Sexual Healing
DYEAR=1995
DGENRE=R&B
TTITLE0=Aint nothing like the real thing
TTITLE1=Heaven Must have sent you
TTITLE2=African Dance (interlude)
TTITLE3=Come get to this
TTITLE4=If this world were mine
TTITLE5=joy
TTITLE6=Rockin' after midnight
TTITLE7=Third world girl
TTITLE8=Whats going on
TTITLE9=Sexual healing
TTITLE10=Distant lover
TTITLE11=Inner city blues
TTITLE12=Stubborn kind of fellow
TTITLE13=God is my friend
TTITLE14=Lets get it on
TTITLE15=Love twins
TTITLE16=I heard it through the grapevine
EXTD=
EXTT0=
EXTT1=
EXTT2=
EXTT3=
EXTT4=
EXTT5=
EXTT6=
EXTT7=
EXTT8=
EXTT9=
EXTT10=
EXTT11=
EXTT12=
EXTT13=
EXTT14=
EXTT15=
EXTT16=
PLAYORDER=
